:SAMPLES-PER-SECOND 30
:FULLY-SPECIFIED
:DEGREES
41
root  83.7189 39.36 1.52276 -121.104 -87.3535 121.306
RightUpLeg  -1.75632 -7.6914 -5.7564
RightLeg  6.53816 13.2352 -0.491847
RightFoot  -5.13974 -0.089534 1.12277
RightToes  -6.40286e-010 0 -3.6325e-017
Spine  10.8763 1.12825 1.03108
Spine1  -20.096 1.16929 -1.32991
HEad  6.96663 -5.77689 -3.58162
LeftShoulder1  0.673987 0.445639 -15.1907
LeftArm  -16.4634 7.19613 -5.28132
LeftForeArm  11.1429 -4.86038 -0.668183
LeftHand  -0.0293518 7.89071 0.599325
RightShoulder  0.506328 -1.03791 13.7382
RightArm  0.098895 -2.93957 1.46044
RightForeArm  3.71639 2.72959 -0.024776
RightHand  0.129749 6.78043 0.880033
LeftUpLeg  -0.238146 6.40879 2.59552
LeftLeg  1.31407 1.87157 0.0826943
LeftFoot  -1.07551 0.0809573 -0.80591
LeftToes  1.32783e-010 1.73515e-011 1.59258e-011
42
root  83.7035 39.3596 1.50941 -125.359 -87.3003 125.651
RightUpLeg  -1.86576 -7.53709 -5.61162
RightLeg  6.53561 13.2709 -0.545465
RightFoot  -5.14835 -0.0879326 1.11281
RightToes  -6.40286e-010 0 -3.6325e-017
Spine  10.5684 1.1919 1.16292
Spine1  -19.7431 1.24017 -1.33242
HEad  7.31819 -5.65797 -4.12913
LeftShoulder1  0.663388 0.546179 -15.6113
LeftArm  -16.8891 7.28477 -5.32546
LeftForeArm  12.5066 -4.88162 -0.415668
LeftHand  -0.0337706 7.79237 0.388916
RightShoulder  0.487962 -1.17672 14.226
RightArm  -0.248878 -3.31547 1.70992
RightForeArm  4.35901 3.3722 -0.165352
RightHand  0.0966077 6.20772 0.628831
LeftUpLeg  -0.307587 6.48302 2.69842
LeftLeg  1.3872 2.02273 0.0757793
LeftFoot  -1.1486 0.0874285 -0.892004
LeftToes  1.32783e-010 1.73515e-011 1.59258e-011
43
root  83.6962 39.3568 1.48316 -128.971 -87.2406 129.304
RightUpLeg  -1.95435 -7.32458 -5.42146
RightLeg  6.56024 13.2059 -0.652751
RightFoot  -5.13128 -0.0793834 0.99556
RightToes  -6.40286e-010 0 -3.6325e-017
Spine  10.3437 1.27456 1.2144
Spine1  -19.3296 1.32614 -1.29666
HEad  7.07309 -5.96173 -4.29191
LeftShoulder1  0.647721 0.636561 -15.7884
LeftArm  -16.7762 8.17154 -5.92767
LeftForeArm  10.6309 -6.15136 -0.502387
LeftHand  -0.034864 7.26001 0.293545
RightShoulder  0.472062 -1.25544 14.2722
RightArm  -0.47654 -4.43799 2.66494
RightForeArm  4.6029 4.71367 -0.284619
RightHand  0.115173 6.32366 0.777603
LeftUpLeg  -0.344067 6.6436 2.8771
LeftLeg  1.47013 1.97821 -0.0248545
LeftFoot  -1.20364 0.0985906 -1.04988
LeftToes  1.32783e-010 1.73515e-011 1.59258e-011
44
root  83.6914 39.3626 1.45652 -131.605 -87.1819 132.017
RightUpLeg  -1.9011 -7.17513 -5.28244
RightLeg  6.21553 13.0888 -0.784738
RightFoot  -5.07248 -0.0899096 1.17473
RightToes  -6.40286e-010 0 -3.6325e-017
Spine  9.94246 1.31315 1.32231
Spine1  -18.5671 1.37746 -1.4279
HEad  6.63269 -5.37194 -3.82565
LeftShoulder1  0.558575 1.0639 -16.117
LeftArm  -17.1355 9.14689 -7.16164
LeftForeArm  11.334 -8.68498 -0.625572
LeftHand  -0.0163586 7.55868 1.0837
RightShoulder  0.402026 -1.62968 14.8289
RightArm  -0.269329 -5.55191 3.93418
RightForeArm  2.73186 7.07983 0.00131697
RightHand  -0.0784846 4.5623 -1.20361
LeftUpLeg  -0.446796 6.77714 3.01042
LeftLeg  1.60105 1.84077 -0.0823584
LeftFoot  -1.15966 0.0997514 -1.05157
LeftToes  1.32783e-010 1.73515e-011 1.59258e-011
45
root  83.6957 39.3615 1.45094 -131.879 -87.2327 132.326
RightUpLeg  -2.02671 -7.14292 -5.21121
RightLeg  6.41729 13.0924 -0.754719
RightFoot  -5.08567 -0.0844784 1.10655
RightToes  -6.40286e-010 0 -3.6325e-017
Spine  9.89103 1.23232 1.67483
Spine1  -18.2205 1.32873 -1.61924
HEad  6.8567 -6.21846 -4.43116
LeftShoulder1  0.47754 1.48578 -16.9594
LeftArm  -17.7884 10.5329 -8.64311
LeftForeArm  13.2675 -12.0914 -0.940747
LeftHand  0.0330783 7.38341 3.35486
RightShoulder  0.358832 -1.89056 15.7257
RightArm  0.0247079 -7.12678 5.2863
RightForeArm  2.87535 9.85298 0.281317
RightHand  -0.154195 4.42159 -2.29572
LeftUpLeg  -0.455197 6.76726 3.03847
LeftLeg  1.50204 1.91992 -0.0638002
LeftFoot  -1.1876 0.0920029 -0.914478
LeftToes  1.32783e-010 1.73515e-011 1.59258e-011
46
root  83.7006 39.3605 1.43794 -129.423 -87.2285 129.928
RightUpLeg  -2.02012 -7.16145 -5.26272
RightLeg  6.24782 12.9237 -0.803967
RightFoot  -5.12481 -0.0805243 1.06142
RightToes  -6.40286e-010 0 -3.6325e-017
Spine  9.61172 1.29068 1.87649
Spine1  -17.5145 1.40996 -1.82547
HEad  6.63554 -6.52659 -4.32673
LeftShoulder1  0.415218 1.83747 -18.2821
LeftArm  -18.4938 11.8737 -10.6163
LeftForeArm  15.7757 -15.6009 -1.69714
LeftHand  -0.0577971 3.79822 2.99935
RightShoulder  0.304028 -2.16935 16.488
RightArm  -0.863829 -9.3444 7.17608
RightForeArm  4.73919 12.6943 0.380041
RightHand  0.0769641 7.90799 0.376373
LeftUpLeg  -0.586721 6.6792 2.95032
LeftLeg  1.61368 1.88383 3.08375e-005
LeftFoot  -1.20423 0.107919 -1.14528
LeftToes  1.32783e-010 1.73515e-011 1.59258e-011
